<?xml version="1.0" standalone="no"?>
<!DOCTYPE svg PUBLIC "-//W3C//DTD SVG 20010904//EN"
 "http://www.w3.org/TR/2001/REC-SVG-20010904/DTD/svg10.dtd">
<svg version="1.0" xmlns="http://www.w3.org/2000/svg"
 width="2000.000000pt" height="1500.000000pt" viewBox="0 0 2000.000000 1500.000000"
 preserveAspectRatio="xMidYMid meet">

<g transform="translate(0.000000,1500.000000) scale(0.100000,-0.100000)"
fill="#000000" stroke="none">
<path d="M0 7500 l0 -7500 10000 0 10000 0 0 7500 0 7500 -10000 0 -10000 0 0
-7500z m10695 3359 c100 -27 150 -106 143 -223 -8 -122 -71 -213 -207 -301
-155 -100 -407 -185 -550 -185 l-51 0 -45 -91 c-116 -230 -279 -638 -585
-1459 -104 -278 -204 -547 -224 -598 -20 -52 -36 -97 -36 -101 0 -4 127 -11
283 -14 327 -8 649 -25 1257 -67 572 -40 798 -48 804 -29 61 182 227 585 403
984 374 844 629 1297 871 1547 116 120 189 168 322 213 172 58 252 70 319 49
21 -7 -11 -37 -74 -73 -251 -142 -911 -1316 -1280 -2276 -56 -145 -165 -446
-165 -454 0 -6 335 9 415 19 40 5 107 19 149 32 76 22 104 20 113 -9 7 -20
-73 -84 -162 -128 -134 -67 -243 -94 -525 -133 l-55 -7 -53 -160 c-74 -222
-175 -550 -223 -724 -229 -828 -235 -1206 -21 -1342 118 -75 250 -32 434 140
214 201 430 521 690 1025 109 211 138 248 177 227 45 -25 32 -68 -112 -361
-243 -495 -407 -746 -656 -1004 -119 -122 -200 -184 -316 -241 -115 -57 -187
-75 -300 -75 -217 0 -358 86 -445 273 -56 121 -64 172 -56 377 13 341 41 510
142 863 74 256 138 451 246 750 49 137 88 250 86 252 -1 1 -156 8 -343 14
-408 14 -1725 68 -1881 77 l-110 6 -54 -148 c-200 -558 -515 -1142 -869 -1614
-500 -668 -979 -1089 -1584 -1391 -740 -371 -1533 -455 -2351 -248 -402 101
-822 345 -1058 614 -289 330 -446 787 -425 1240 16 325 84 592 201 788 114
192 372 443 546 532 108 55 241 69 257 28 7 -17 -50 -73 -73 -73 -27 0 -173
-108 -248 -183 -227 -227 -369 -488 -436 -797 -27 -122 -38 -428 -21 -551 29
-202 103 -396 213 -556 66 -97 219 -250 324 -325 328 -233 715 -357 1215 -389
351 -22 643 18 1065 146 1078 327 1920 1012 2519 2050 120 208 311 608 391
821 l25 67 -82 -6 c-83 -7 -188 -39 -359 -111 -141 -59 -205 -45 -181 40 23
82 102 158 244 234 112 60 160 70 327 70 l147 0 38 93 c291 707 530 1241 822
1840 80 163 143 300 140 303 -2 3 -49 0 -103 -5 -55 -6 -304 -29 -554 -51
-780 -69 -1187 -138 -1499 -255 -385 -143 -613 -275 -802 -464 -233 -234 -389
-490 -500 -822 -78 -233 -103 -528 -58 -689 58 -210 200 -400 361 -481 95 -48
175 -62 313 -56 136 7 209 24 311 72 247 118 417 365 548 796 62 206 65 321
11 435 -30 64 -23 84 30 84 39 0 57 -18 88 -90 83 -189 87 -426 11 -629 -32
-87 -121 -244 -191 -340 -312 -424 -850 -583 -1306 -386 -164 71 -343 221
-440 368 -104 157 -188 384 -203 549 -12 142 34 451 95 629 123 363 378 685
693 877 270 165 643 323 913 387 334 79 954 154 1565 190 517 30 783 47 805
54 15 4 42 35 72 81 123 188 314 399 403 445 76 39 242 57 325 34z m4540 -38
c166 -60 253 -191 263 -392 8 -168 -34 -286 -131 -376 -98 -89 -200 -113 -479
-113 l-148 0 0 456 0 456 218 -5 c190 -4 224 -7 277 -26z m1015 -51 l0 -80
-210 0 -210 0 0 -105 0 -105 195 0 195 0 0 -80 0 -80 -192 -2 -193 -3 0 -105
0 -105 208 -3 207 -2 0 -80 0 -80 -302 2 -303 3 -3 453 -2 452 305 0 305 0 0
-80z m379 -117 c34 -109 83 -262 108 -340 25 -79 48 -143 52 -143 4 0 33 82
65 183 31 100 80 253 108 340 l51 157 103 0 c57 0 104 -3 104 -7 0 -5 -69
-208 -154 -453 l-154 -445 -123 0 -123 0 -152 440 c-84 242 -153 446 -153 453
-1 9 26 12 102 12 l103 0 63 -197z"/>
<path d="M10437 10629 c-25 -16 -70 -56 -100 -89 -71 -77 -180 -210 -175 -215
6 -6 150 24 218 46 134 44 210 109 210 180 0 53 -14 78 -55 95 -45 19 -45 19
-98 -17z"/>
<path d="M14930 10395 l0 -285 88 0 c118 0 180 19 225 70 52 56 71 130 65 246
-7 123 -39 185 -118 227 -47 24 -62 27 -156 27 l-104 0 0 -285z"/>
</g>
</svg>
